<?xml version="1.0" encoding="UTF-8"?>
<svg width="20px" height="21px" viewBox="0 0 20 21" version="1.1" xmlns="http://www.w3.org/2000/svg" xmlns:xlink="http://www.w3.org/1999/xlink">
    <!-- Generator: Sketch 47.1 (45422) - http://www.bohemiancoding.com/sketch -->
    <title>google_g_logo</title>
    <desc>Created with Sketch.</desc>
    <defs>
        <path d="M19.7721584,8.37409063 L10.2349997,8.37409063 L10.2349997,12.3285223 L15.7246813,12.3285223 C15.2129313,14.8407495 13.0728859,16.282954 10.2349997,16.282954 C6.88536341,16.282954 4.18704531,13.5846359 4.18704531,10.2349997 C4.18704531,6.88536341 6.88536341,4.18704531 10.2349997,4.18704531 C11.6772042,4.18704531 12.9798405,4.6987953 14.0033404,5.53620436 L16.9807949,2.55874991 C15.1664086,0.97697724 12.8402723,0 10.2349997,0 C4.55922712,0 0,4.55922712 0,10.2349997 C0,15.9107722 4.55922712,20.4699993 10.2349997,20.4699993 C15.3524995,20.4699993 20.0047721,16.7481813 20.0047721,10.2349997 C20.0047721,9.63020422 19.9117266,8.97888606 19.7721584,8.37409063 Z" id="path-1"></path>
        <path d="M19.7721584,8.37409063 L10.2349997,8.37409063 L10.2349997,12.3285223 L15.7246813,12.3285223 C15.2129313,14.8407495 13.0728859,16.282954 10.2349997,16.282954 C6.88536341,16.282954 4.18704531,13.5846359 4.18704531,10.2349997 C4.18704531,6.88536341 6.88536341,4.18704531 10.2349997,4.18704531 C11.6772042,4.18704531 12.9798405,4.6987953 14.0033404,5.53620436 L16.9807949,2.55874991 C15.1664086,0.97697724 12.8402723,0 10.2349997,0 C4.55922712,0 0,4.55922712 0,10.2349997 C0,15.9107722 4.55922712,20.4699993 10.2349997,20.4699993 C15.3524995,20.4699993 20.0047721,16.7481813 20.0047721,10.2349997 C20.0047721,9.63020422 19.9117266,8.97888606 19.7721584,8.37409063 Z" id="path-3"></path>
        <path d="M19.7721584,8.37409063 L10.2349997,8.37409063 L10.2349997,12.3285223 L15.7246813,12.3285223 C15.2129313,14.8407495 13.0728859,16.282954 10.2349997,16.282954 C6.88536341,16.282954 4.18704531,13.5846359 4.18704531,10.2349997 C4.18704531,6.88536341 6.88536341,4.18704531 10.2349997,4.18704531 C11.6772042,4.18704531 12.9798405,4.6987953 14.0033404,5.53620436 L16.9807949,2.55874991 C15.1664086,0.97697724 12.8402723,0 10.2349997,0 C4.55922712,0 0,4.55922712 0,10.2349997 C0,15.9107722 4.55922712,20.4699993 10.2349997,20.4699993 C15.3524995,20.4699993 20.0047721,16.7481813 20.0047721,10.2349997 C20.0047721,9.63020422 19.9117266,8.97888606 19.7721584,8.37409063 Z" id="path-5"></path>
        <path d="M19.7721584,8.37409063 L10.2349997,8.37409063 L10.2349997,12.3285223 L15.7246813,12.3285223 C15.2129313,14.8407495 13.0728859,16.282954 10.2349997,16.282954 C6.88536341,16.282954 4.18704531,13.5846359 4.18704531,10.2349997 C4.18704531,6.88536341 6.88536341,4.18704531 10.2349997,4.18704531 C11.6772042,4.18704531 12.9798405,4.6987953 14.0033404,5.53620436 L16.9807949,2.55874991 C15.1664086,0.97697724 12.8402723,0 10.2349997,0 C4.55922712,0 0,4.55922712 0,10.2349997 C0,15.9107722 4.55922712,20.4699993 10.2349997,20.4699993 C15.3524995,20.4699993 20.0047721,16.7481813 20.0047721,10.2349997 C20.0047721,9.63020422 19.9117266,8.97888606 19.7721584,8.37409063 Z" id="path-7"></path>
    </defs>
    <g id="Page-1" stroke="none" stroke-width="1" fill="none" fill-rule="evenodd">
        <g id="google_g_logo">
            <g id="Clipped">
                <mask id="mask-2" fill="white">
                    <use xlink:href="#path-1"></use>
                </mask>
                <g id="a"></g>
                <polygon id="Shape" fill="#FBBC05" fill-rule="nonzero" mask="url(#mask-2)" points="-0.930454514 16.282954 -0.930454514 4.18704531 6.97840886 10.2349997"></polygon>
            </g>
            <g id="Clipped">
                <mask id="mask-4" fill="white">
                    <use xlink:href="#path-3"></use>
                </mask>
                <g id="a"></g>
                <polygon id="Shape" fill="#EA4335" fill-rule="nonzero" mask="url(#mask-4)" points="-0.930454514 4.18704531 6.97840886 10.2349997 10.2349997 7.39711339 21.4004538 5.58272709 21.4004538 -0.930454514 -0.930454514 -0.930454514"></polygon>
            </g>
            <g id="Clipped">
                <mask id="mask-6" fill="white">
                    <use xlink:href="#path-5"></use>
                </mask>
                <g id="a"></g>
                <polygon id="Shape" fill="#34A853" fill-rule="nonzero" mask="url(#mask-6)" points="-0.930454514 16.282954 13.0263632 5.58272709 16.7016585 6.04795434 21.4004538 -0.930454514 21.4004538 21.4004538 -0.930454514 21.4004538"></polygon>
            </g>
            <g id="Clipped">
                <mask id="mask-8" fill="white">
                    <use xlink:href="#path-7"></use>
                </mask>
                <g id="a"></g>
                <polygon id="Shape" fill="#4285F4" fill-rule="nonzero" mask="url(#mask-8)" points="21.4004538 21.4004538 6.97840886 10.2349997 5.11749983 8.83931789 21.4004538 4.18704531"></polygon>
            </g>
        </g>
    </g>
</svg>