<?xml version="1.0" encoding="UTF-8"?>
<svg width="20px" height="21px" viewBox="0 0 20 21" version="1.1" xmlns="http://www.w3.org/2000/svg" xmlns:xlink="http://www.w3.org/1999/xlink">
    <!-- Generator: Sketch 47.1 (45422) - http://www.bohemiancoding.com/sketch -->
    <title>woosmap-icon</title>
    <desc>Created with Sketch.</desc>
    <defs></defs>
    <g id="Page-1" stroke="none" stroke-width="1" fill="none" fill-rule="evenodd">
        <g id="woosmap-icon" fill-rule="nonzero" fill="#03A9F4">
            <path d="M16.4428123,10.8063387 C15.9161457,10.1559038 15.3007833,9.22488942 15.3007833,9.22488942 C15.0106384,9.71039658 14.8100587,10.2440198 14.7091892,10.8002517 L14.4990443,11.6869183 C13.8628123,14.3915561 13.5729573,15.6240198 12.4842616,15.6654691 C11.5138268,15.7008314 11.0758558,14.5718459 10.7091892,13.4130053 L10.5138268,12.7834401 C10.3155659,12.1477879 10.0758558,11.373585 9.85701525,10.7851793 C9.753537,11.1428604 9.63208767,11.6422807 9.49324708,12.3399618 C9.22397175,13.699672 9.04658042,14.5509763 8.88687033,15.1628604 C8.72716017,15.7747444 8.47266742,16.7324256 7.61469637,16.7382228 C6.75672535,16.7440198 6.47556593,15.7628604 6.27440651,14.9645995 C6.07324708,14.1666285 5.84831955,13.1054691 5.53179781,11.5860488 L5.34252245,10.6903966 C5.17092825,9.87445458 4.72716013,7.73445462 4.36310216,6.64981694 L4.23875433,6.83590389 L4.05237752,7.10778795 C3.77005868,7.46430969 3.26078332,7.54344013 2.88368187,7.28894738 C2.50658042,7.03474448 2.38918912,6.53300534 2.61469637,6.13822273 L2.79527607,5.87503433 C3.36049347,5.03561404 3.84860941,4.31126622 4.70368187,4.47996187 C5.6712181,4.66923723 6.06744998,5.66228071 7.04687027,10.3443097 L7.23614564,11.2518459 C7.36339202,11.8579328 7.48455143,12.4341648 7.5970152,12.9634401 L7.78918912,12.0115561 C8.25672531,9.6645995 8.70629058,8.381701 9.753537,8.32865752 C10.9370152,8.26662853 11.3746964,9.69126617 12.1796239,12.277643 L12.3749862,12.9014111 L12.3987543,12.9724256 C12.5349863,12.4550343 12.6799138,11.8463387 12.8071602,11.2993822 C12.8752761,11.0037299 12.9462906,10.7080778 13.0202037,10.4127155 C13.4373051,8.677643 14.0173051,7.75242563 14.851508,7.45677346 C15.3164355,7.30372998 15.82745,7.39590389 16.209479,7.70199085 L16.2300587,7.71967201 C16.2300587,7.71967201 17.6619428,9.01445458 17.8100587,10.1347444 C17.9578848,11.2550343 16.9726674,11.4619908 16.4462906,10.8144546 M10.0032334,0.306930783 C5.95646761,0.305754325 2.30793716,2.74132033 0.760583783,6.47716861 C-0.786769592,10.2130168 0.0717600583,14.5123894 2.93587852,17.3685398 C5.79999697,20.2249844 10.1047041,21.0749767 13.8411758,19.5220496 C17.5776474,17.9691226 20.0088245,14.3197442 20.0002951,10.2765458 C19.9985304,4.75983133 15.5220585,0.28869565 10.0005864,0.28869565" id="Shape"></path>
        </g>
    </g>
</svg>